<?xml version="1.0" encoding="utf-8"?>
<!-- Generator: Adobe Illustrator 16.0.0, SVG Export Plug-In . SVG Version: 6.00 Build 0)  -->
<!DOCTYPE svg PUBLIC "-//W3C//DTD SVG 1.1//EN" "http://www.w3.org/Graphics/SVG/1.1/DTD/svg11.dtd">
<svg version="1.1" id="Layer_1_copy" xmlns="http://www.w3.org/2000/svg" xmlns:xlink="http://www.w3.org/1999/xlink" x="0px"
	 y="0px" width="1036.682px" height="200px" viewBox="0 0 1036.682 200" enable-background="new 0 0 1036.682 200"
	 xml:space="preserve">
<circle fill="#FFFFFF" cx="99.948" cy="100.053" r="99.948"/>
<g>
	<path fill="#636466" d="M157.835,112.89h41.205c0.544-4.229,0.855-8.523,0.855-12.895c0-33.626-16.613-63.353-42.061-81.482V112.89
		z"/>
	<path fill="#FFAF3A" d="M150.609,96.38V13.818C135.742,5.05,118.416,0,99.902,0C45.889,0,1.904,42.832,0,96.38H150.609z"/>
	<path fill="#262223" d="M150.609,120.112v-16.507H0c1.904,53.545,45.889,96.379,99.902,96.379
		c48.333,0,88.658-34.292,97.969-79.873H150.609z"/>
</g>
<g>
	<path fill="#FFFFFF" d="M377.545,52.491c-0.177-4.472-0.364-9.033-0.575-13.688c3.167,0.141,6.324,0.266,9.454,0.368
		c3.134,0.107,6.29,0.16,9.465,0.16c3.173,0,6.38-0.053,9.619-0.16c3.238-0.103,6.767-0.227,10.57-0.368
		c-0.21,1.059-0.32,2.117-0.32,3.17c0,1.059,0.11,2.118,0.32,3.176c-1.901-0.216-4.19-0.409-6.866-0.583
		c-2.682-0.174-5.418-0.323-8.192-0.426c-2.787-0.107-5.463-0.19-8.038-0.266c-2.578-0.069-4.701-0.107-6.392-0.107
		c-0.077,2.468-0.128,4.834-0.166,7.087c-0.033,2.253-0.055,4.506-0.055,6.768c0,2.468,0.021,4.737,0.055,6.816
		c0.038,2.082,0.056,4.246,0.056,6.496c4.654,0,9.248-0.067,13.799-0.208c4.544-0.142,9.033-0.426,13.479-0.844
		c-0.289,1.051-0.427,2.112-0.427,3.168c0,1.061,0.138,2.111,0.427,3.17c-1.77-0.207-3.76-0.373-5.978-0.475
		c-2.216-0.109-4.527-0.191-6.927-0.26c-2.399-0.076-4.82-0.114-7.293-0.114h-7.08v8.99c0,4.654,0.087,9.235,0.266,13.74
		c0.175,4.511,0.364,8.95,0.574,13.321c-1.614-0.141-3.34-0.21-5.176-0.21c-1.83,0-3.56,0.07-5.174,0.21
		c0.211-4.371,0.398-8.81,0.575-13.321c0.178-4.505,0.265-9.086,0.265-13.74V66.18C377.81,61.533,377.723,56.97,377.545,52.491
		 M348.155,52.491c-0.172-4.472-0.364-9.033-0.574-13.688c0.911,0.141,1.791,0.266,2.641,0.368c0.848,0.107,1.693,0.16,2.539,0.16
		s1.692-0.053,2.538-0.16c0.84-0.103,1.724-0.227,2.642-0.368c-0.215,4.655-0.408,9.216-0.586,13.688
		c-0.171,4.479-0.254,9.042-0.254,13.688v18.185c0,4.654,0.083,9.235,0.254,13.74c0.178,4.511,0.371,8.95,0.586,13.321
		c-1.625-0.141-3.35-0.21-5.18-0.21c-1.836,0-3.561,0.07-5.18,0.21c0.21-4.371,0.402-8.81,0.574-13.321
		c0.188-4.505,0.266-9.086,0.266-13.74V66.18C348.421,61.533,348.344,56.97,348.155,52.491 M322.79,47.894
		c-1.586-1.268-3.345-2.376-5.284-3.327c-1.936-0.952-4.086-1.728-6.446-2.328c-2.367-0.594-4.888-0.898-7.558-0.898
		c-4.373,0-8.442,0.672-12.213,2.01c-3.77,1.34-7.042,3.403-9.829,6.187c-2.787,2.78-4.965,6.299-6.551,10.57
		c-1.587,4.263-2.378,9.318-2.378,15.165c0,5.147,0.703,9.793,2.111,13.957c1.411,4.155,3.467,7.66,6.182,10.518
		c2.714,2.853,6.031,5.056,9.94,6.606c3.908,1.55,8.331,2.319,13.263,2.319c1.482,0,3.029-0.066,4.648-0.207
		c1.627-0.141,3.191-0.351,4.705-0.635c1.516-0.277,2.93-0.634,4.229-1.06c1.299-0.417,2.416-0.909,3.328-1.476
		c0.071-2.111,0.128-4.229,0.165-6.341c0.029-2.117,0.051-4.263,0.051-6.454c0-2.464-0.051-4.929-0.154-7.398
		c-0.111-2.462-0.233-4.823-0.371-7.081c1.758,0.356,3.445,0.531,5.07,0.531c0.773,0,1.552-0.033,2.322-0.108
		c0.773-0.066,1.513-0.209,2.222-0.422c-0.138,1.623-0.243,4.176-0.315,7.665c-0.071,3.491-0.105,8.083-0.105,13.796
		c0,1.408,0.018,2.836,0.05,4.279c0.035,1.449,0.056,2.87,0.056,4.284c-1.48,0.562-3.333,1.146-5.556,1.745
		c-2.212,0.6-4.577,1.086-7.076,1.477c-2.505,0.387-4.998,0.74-7.503,1.061c-2.504,0.31-4.781,0.476-6.821,0.476
		c-6.275,0-11.926-0.763-16.968-2.277c-5.042-1.513-9.321-3.854-12.848-7.03c-3.516-3.171-6.23-7.118-8.133-11.839
		c-1.901-4.721-2.853-10.178-2.853-16.384c0-5.989,0.985-11.327,2.958-16.013c1.975-4.683,4.755-8.652,8.348-11.889
		c3.595-3.245,7.949-5.713,13.059-7.399c5.107-1.692,10.764-2.543,16.967-2.543c3.6,0,6.777,0.199,9.559,0.583
		c2.787,0.392,5.258,0.902,7.404,1.534c2.148,0.636,4.034,1.302,5.654,2.004c1.625,0.708,3.068,1.377,4.334,2.009
		c-0.564,0.993-1.072,2.262-1.532,3.812c-0.458,1.551-0.757,2.994-0.899,4.332h-1.261C325.699,50.432,324.372,49.164,322.79,47.894"
		/>
	<path fill="#FFFFFF" d="M445.042,44.301c-1.835,0-3.753,0.02-5.766,0.052c-2.002,0.04-4.014,0.109-6.021,0.211
		c-2.006,0.105-3.946,0.232-5.816,0.374c-1.863,0.141-3.539,0.317-5.019,0.525c0.348-1.269,0.53-2.395,0.53-3.378
		c0-0.776-0.183-1.868-0.53-3.278c4.649,0.141,9.193,0.265,13.639,0.368c4.433,0.108,8.983,0.157,13.633,0.157
		s9.198-0.049,13.634-0.157c4.443-0.103,8.989-0.227,13.637-0.368c-0.347,1.41-0.53,2.535-0.53,3.381
		c0,0.915,0.184,2.006,0.53,3.275c-1.476-0.208-3.151-0.384-5.019-0.525c-1.87-0.141-3.81-0.269-5.816-0.374
		c-2.006-0.102-4.014-0.171-6.021-0.211c-2.012-0.032-3.93-0.052-5.766-0.052c-0.217,7.259-0.315,14.551-0.315,21.882v18.182
		c0,4.648,0.088,9.228,0.266,13.742c0.177,4.511,0.365,8.951,0.574,13.313c-1.613-0.141-3.338-0.207-5.174-0.207
		c-1.83,0-3.562,0.066-5.175,0.207c0.21-4.362,0.397-8.802,0.576-13.313c0.176-4.514,0.265-9.094,0.265-13.742V66.183
		C445.357,58.852,445.246,51.56,445.042,44.301"/>
	<path fill="#FFFFFF" d="M698.947,66.186v18.179c0,4.651-0.088,9.232-0.266,13.743c-0.176,4.508-0.369,8.951-0.574,13.316
		c3.373-0.142,6.635-0.208,9.775-0.208h9.773h9.73c3.233,0,6.479,0.066,9.717,0.208c-0.352-1.125-0.53-2.076-0.53-2.854
		c0-0.843,0.179-1.902,0.53-3.17c-5.284,0.703-10.215,1.111-14.793,1.211c-4.589,0.108-9.376,0.166-14.379,0.166
		c-0.072-5.147-0.138-10.976-0.21-17.497c-0.072-6.518-0.106-14.217-0.106-23.093c0-4.655,0.084-9.215,0.268-13.694
		c0.175-4.472,0.364-9.036,0.585-13.688c-0.919,0.141-1.803,0.266-2.649,0.373c-0.844,0.102-1.691,0.157-2.536,0.157
		c-0.852,0-1.692-0.055-2.543-0.157c-0.841-0.107-1.726-0.232-2.632-0.373c0.205,4.652,0.398,9.216,0.574,13.688
		C698.859,56.97,698.947,61.53,698.947,66.186 M671.781,73.16c0,2.185-0.034,4.581-0.102,7.19c-0.076,2.604-0.319,5.213-0.745,7.823
		c-0.426,2.603-1.11,5.108-2.063,7.501c-0.95,2.399-2.271,4.512-3.97,6.341c-1.68,1.833-3.848,3.317-6.495,4.442
		c-2.637,1.128-5.904,1.689-9.78,1.689c-3.941,0-7.254-0.475-9.929-1.429c-2.681-0.946-4.909-2.253-6.656-3.906
		c-1.769-1.659-3.128-3.594-4.079-5.813c-0.952-2.22-1.637-4.552-2.059-6.979c-0.418-2.436-0.675-4.932-0.74-7.503
		c-0.071-2.576-0.109-5.062-0.109-7.456c0-3.943,0.038-7.75,0.109-11.418c0.065-3.663,0.178-7.077,0.322-10.252
		c0.132-3.171,0.274-6.007,0.418-8.509c0.141-2.501,0.277-4.527,0.422-6.078c-0.774,0.141-1.538,0.266-2.279,0.373
		c-0.729,0.102-1.492,0.157-2.266,0.157c-0.846,0-1.759-0.055-2.748-0.157c-0.988-0.107-1.901-0.232-2.747-0.373
		c0.139,3.168,0.276,7.045,0.42,11.631c0.145,4.581,0.21,9.83,0.21,15.751c0,2.676-0.083,5.299-0.26,7.868
		c-0.17,2.576-0.266,5.52-0.266,8.832c0,10.36,2.394,17.934,7.193,22.724c4.787,4.796,12.473,7.193,23.036,7.193
		c4.794,0,9.039-0.674,12.737-2.012c3.705-1.335,6.815-3.312,9.36-5.916c2.531-2.609,4.489-5.78,5.86-9.517
		c1.382-3.737,2.102-7.964,2.173-12.685c0.066-3.873,0.172-7.875,0.315-11.996c0.143-4.123,0.286-8.142,0.419-12.052
		c0.145-3.914,0.322-7.577,0.532-10.997c0.208-3.411,0.419-6.358,0.634-8.823c-1.198,0.357-2.261,0.53-3.166,0.53
		c-0.708,0-1.416-0.055-2.123-0.157c-0.708-0.107-1.438-0.232-2.216-0.373c0.28,2.048,0.457,5.779,0.533,11.209
		C671.747,55.436,671.781,63.156,671.781,73.16 M560.792,85.947V75.169h4.753c3.528,0,6.718,0.209,9.565,0.633
		c2.858,0.42,5.306,1.184,7.347,2.27c2.046,1.094,3.61,2.612,4.705,4.547c1.095,1.938,1.637,4.422,1.637,7.455
		c0,2.82-0.459,5.335-1.371,7.552c-0.918,2.225-2.151,4.094-3.704,5.606c-1.548,1.518-3.362,2.659-5.44,3.436
		c-2.079,0.777-4.245,1.162-6.495,1.162c-1.908,0-3.771-0.053-5.607-0.158c-1.829-0.103-3.421-0.227-4.759-0.371
		c-0.133-3.593-0.277-7.148-0.421-10.675C560.856,93.104,560.792,89.543,560.792,85.947 M566.496,71.258h-5.704v-7.93
		c0-3.382,0.064-6.729,0.209-10.041c0.144-3.311,0.288-6.661,0.421-10.047c0.99-0.135,2.117-0.26,3.383-0.367
		c1.272-0.103,2.82-0.158,4.656-0.158c2.034,0,4.09,0.158,6.124,0.476c2.046,0.318,3.881,0.951,5.507,1.902
		c1.615,0.956,2.958,2.291,4.014,4.019c1.057,1.727,1.58,4.036,1.58,6.924c0,2.96-0.585,5.408-1.746,7.348
		c-1.162,1.934-2.692,3.488-4.593,4.646c-1.902,1.167-4.07,1.993-6.507,2.485C571.416,71.009,568.969,71.258,566.496,71.258
		 M552.123,66.078v18.183c0,4.647-0.088,9.21-0.266,13.688c-0.178,4.473-0.37,8.967-0.581,13.474c1.692-0.142,3.4-0.208,5.126-0.208
		h5.13c1.691,0,3.399,0.033,5.126,0.1c1.729,0.074,3.432,0.108,5.13,0.108c3.095,0,6.213-0.335,9.348-1
		c3.141-0.669,6.01-1.837,8.619-3.495c2.604-1.652,4.716-3.814,6.342-6.493c1.618-2.684,2.432-5.995,2.432-9.94
		c0-6.059-1.813-10.462-5.445-13.212c-3.627-2.753-8.58-4.262-14.854-4.548v-0.208c5.285-1.202,9.563-3.278,12.848-6.238
		c3.271-2.96,4.908-7.043,4.908-12.262c0-2.96-0.597-5.424-1.79-7.399c-1.2-1.972-2.821-3.539-4.865-4.706
		c-2.046-1.161-4.399-1.97-7.082-2.429c-2.676-0.457-5.528-0.688-8.563-0.688c-1.831,0-3.7,0.089-5.601,0.266
		c-1.903,0.174-3.771,0.265-5.601,0.265c-1.836,0-3.704-0.055-5.605-0.157c-1.902-0.107-3.771-0.232-5.602-0.373
		c0.211,4.511,0.403,9.022,0.581,13.528C552.035,56.842,552.123,61.428,552.123,66.078 M493.135,78.55
		c1.834,0,3.735,0.039,5.704,0.108c1.98,0.071,3.881,0.104,5.718,0.104c1.967,0,3.946-0.022,5.914-0.055
		c1.979-0.033,3.947-0.086,5.922-0.158l-11.727-26.852L493.135,78.55z M539.965,111.423c-0.982-0.142-1.917-0.208-2.802-0.208
		h-2.803h-2.792c-0.885,0-1.825,0.066-2.809,0.208c-0.487-1.617-1.161-3.572-2.008-5.863c-0.845-2.289-1.774-4.688-2.803-7.19
		c-1.018-2.504-2.056-5.04-3.117-7.609c-1.051-2.571-2.045-5.02-2.952-7.348c-2.268-0.068-4.556-0.123-6.878-0.159
		c-2.323-0.034-4.655-0.05-6.977-0.05c-2.179,0-4.335,0.017-6.452,0.05c-2.105,0.036-4.262,0.091-6.446,0.159
		c-2.25,5.496-4.295,10.729-6.131,15.699c-1.83,4.97-3.206,9.075-4.123,12.312c-1.196-0.142-2.501-0.208-3.911-0.208
		c-1.409,0-2.713,0.066-3.907,0.208c5.704-12.329,11.271-24.591,16.702-36.787c5.424-12.188,10.884-24.591,16.38-37.204h2.012
		c1.688,4.088,3.522,8.508,5.496,13.263c1.968,4.757,3.98,9.569,6.026,14.432c2.045,4.862,4.084,9.692,6.132,14.482
		c2.04,4.793,3.962,9.249,5.766,13.371c1.791,4.121,3.409,7.807,4.853,11.046C537.865,107.268,539.049,109.736,539.965,111.423"/>
	<path fill="#FFFFFF" d="M763.321,78.55c1.835,0,3.737,0.039,5.704,0.108c1.98,0.071,3.882,0.104,5.713,0.104
		c1.973,0,3.945-0.022,5.92-0.055c1.969-0.033,3.942-0.086,5.916-0.158l-11.732-26.852L763.321,78.55z M810.147,111.423
		c-0.984-0.142-1.919-0.208-2.799-0.208h-2.808h-2.791c-0.886,0-1.819,0.066-2.804,0.208c-0.492-1.617-1.166-3.572-2.013-5.863
		c-0.84-2.289-1.773-4.688-2.796-7.19c-1.024-2.504-2.067-5.04-3.118-7.609c-1.058-2.571-2.047-5.02-2.965-7.348
		c-2.255-0.068-4.544-0.123-6.864-0.159c-2.335-0.034-4.657-0.05-6.985-0.05c-2.177,0-4.327,0.017-6.44,0.05
		c-2.121,0.036-4.267,0.091-6.444,0.159c-2.262,5.496-4.309,10.729-6.139,15.699c-1.834,4.97-3.205,9.075-4.122,12.312
		c-1.194-0.142-2.505-0.208-3.903-0.208c-1.416,0-2.721,0.066-3.915,0.208c5.706-12.329,11.267-24.591,16.696-36.787
		c5.429-12.188,10.892-24.591,16.386-37.204h2.012c1.683,4.088,3.518,8.508,5.496,13.263c1.969,4.757,3.981,9.569,6.026,14.432
		c2.04,4.862,4.08,9.692,6.125,14.482c2.047,4.793,3.965,9.249,5.768,13.371c1.795,4.121,3.412,7.807,4.857,11.046
		C808.047,107.268,809.23,109.736,810.147,111.423"/>
	<path fill="#FFFFFF" d="M828.966,44.301c-1.835,0-3.753,0.02-5.761,0.052c-2.013,0.04-4.015,0.109-6.026,0.211
		c-2.001,0.105-3.947,0.232-5.815,0.374c-1.868,0.141-3.538,0.317-5.019,0.525c0.353-1.269,0.53-2.395,0.53-3.378
		c0-0.776-0.178-1.868-0.53-3.278c4.653,0.141,9.192,0.265,13.638,0.368c4.438,0.108,8.983,0.157,13.627,0.157
		c4.656,0,9.2-0.049,13.644-0.157c4.44-0.103,8.979-0.227,13.634-0.368c-0.353,1.41-0.531,2.535-0.531,3.381
		c0,0.915,0.179,2.006,0.531,3.275c-1.48-0.208-3.15-0.384-5.02-0.525c-1.867-0.141-3.803-0.269-5.814-0.374
		c-2.014-0.102-4.015-0.171-6.027-0.211c-2.006-0.032-3.926-0.052-5.76-0.052c-0.211,7.259-0.316,14.551-0.316,21.882v18.182
		c0,4.648,0.095,9.228,0.267,13.742c0.177,4.511,0.37,8.951,0.579,13.313c-1.624-0.141-3.35-0.207-5.186-0.207
		c-1.823,0-3.55,0.066-5.174,0.207c0.209-4.362,0.409-8.802,0.581-13.313c0.175-4.514,0.264-9.094,0.264-13.742V66.183
		C829.28,58.852,829.176,51.56,828.966,44.301"/>
	<path fill="#FFFFFF" d="M969.4,72.632c1.161,0.072,2.443,0.1,3.847,0.1c2.19,0,4.456-0.244,6.823-0.735
		c2.354-0.493,4.527-1.357,6.501-2.587c1.969-1.233,3.616-2.892,4.915-4.97c1.299-2.079,1.962-4.705,1.962-7.876
		c0-2.749-0.52-5.02-1.536-6.819c-1.028-1.797-2.345-3.223-3.964-4.282c-1.627-1.053-3.39-1.777-5.291-2.167
		c-1.901-0.384-3.77-0.578-5.595-0.578c-2.478,0-4.511,0.05-6.131,0.158c-1.625,0.108-3.002,0.227-4.131,0.368
		c-0.138,3.878-0.282,7.717-0.419,11.526c-0.145,3.804-0.211,7.61-0.211,11.414v6.023C967.161,72.422,968.229,72.563,969.4,72.632
		 M957.244,52.495c-0.183-4.473-0.372-9.042-0.582-13.688c2.035,0.141,4.048,0.265,6.021,0.368c1.974,0.108,3.979,0.157,6.02,0.157
		c2.045,0,4.059-0.086,6.033-0.26c1.974-0.179,3.979-0.265,6.02-0.265c2.963,0,5.777,0.282,8.459,0.843
		c2.68,0.567,5.019,1.501,7.025,2.803c2.008,1.302,3.601,3.01,4.761,5.127c1.162,2.112,1.747,4.757,1.747,7.925
		c0,3.387-0.764,6.292-2.278,8.724c-1.515,2.431-3.36,4.439-5.551,6.024c-2.178,1.586-4.521,2.82-7.025,3.699
		c-2.506,0.881-4.771,1.465-6.818,1.744c0.841,1.055,2.001,2.541,3.483,4.442c1.488,1.902,3.14,3.997,4.977,6.289
		c1.823,2.289,3.726,4.688,5.705,7.187c1.978,2.501,3.881,4.901,5.704,7.188c1.836,2.294,3.562,4.389,5.183,6.291
		c1.624,1.902,2.922,3.35,3.907,4.329c-1.056-0.135-2.112-0.207-3.167-0.207h-3.17h-3.066c-1.056,0-2.078,0.072-3.063,0.207
		c-1.055-1.477-2.659-3.696-4.815-6.656c-2.145-2.956-4.527-6.132-7.131-9.512c-2.61-3.383-5.27-6.748-7.983-10.093
		c-2.709-3.353-5.198-6.183-7.447-8.514h-4.02v7.72c0,4.648,0.088,9.228,0.267,13.742c0.177,4.511,0.363,8.951,0.585,13.313
		c-1.624-0.135-3.355-0.207-5.186-0.207c-1.836,0-3.561,0.072-5.175,0.207c0.21-4.362,0.399-8.802,0.582-13.313
		c0.171-4.514,0.26-9.094,0.26-13.742V66.183C957.504,61.528,957.415,56.973,957.244,52.495 M930.126,60.107
		c-1.481-4.268-3.539-7.79-6.181-10.573c-2.644-2.781-5.75-4.846-9.299-6.184c-3.566-1.335-7.42-2.01-11.582-2.01
		c-4.087,0-7.911,0.675-11.472,2.01c-3.562,1.338-6.657,3.403-9.299,6.184c-2.644,2.783-4.705,6.305-6.187,10.573
		c-1.477,4.26-2.219,9.318-2.219,15.167c0,5.849,0.742,10.902,2.219,15.167c1.481,4.262,3.543,7.79,6.187,10.567
		c2.642,2.787,5.737,4.852,9.299,6.189c3.561,1.334,7.385,2.003,11.472,2.003c4.162,0,8.016-0.668,11.582-2.003
		c3.549-1.338,6.655-3.402,9.299-6.189c2.642-2.778,4.699-6.305,6.181-10.567c1.482-4.266,2.224-9.318,2.224-15.167
		C932.35,69.425,931.608,64.367,930.126,60.107 M866.438,59.258c1.936-4.688,4.655-8.649,8.139-11.889
		c3.488-3.242,7.668-5.711,12.528-7.402c4.858-1.69,10.182-2.538,15.96-2.538c5.848,0,11.207,0.848,16.07,2.538
		c4.86,1.691,9.034,4.16,12.528,7.402c3.481,3.24,6.191,7.201,8.132,11.889c1.94,4.688,2.907,10.026,2.907,16.016
		s-0.967,11.328-2.907,16.016c-1.94,4.683-4.65,8.65-8.132,11.889c-3.494,3.242-7.668,5.652-12.528,7.239
		c-4.863,1.586-10.223,2.383-16.07,2.383c-5.778,0-11.102-0.796-15.96-2.383c-4.86-1.587-9.04-3.997-12.528-7.239
		c-3.483-3.239-6.203-7.206-8.139-11.889c-1.936-4.688-2.908-10.026-2.908-16.016S864.502,63.946,866.438,59.258"/>
	<path fill="#FFFFFF" d="M1022.54,49.296c0.255,0.024,0.546,0.036,0.856,0.036c0.581,0,1.122-0.064,1.619-0.182
		c0.504-0.125,0.951-0.315,1.344-0.589c0.393-0.266,0.69-0.616,0.923-1.053c0.222-0.435,0.333-0.958,0.333-1.557
		c0-0.871-0.283-1.55-0.853-2.037c-0.574-0.492-1.326-0.74-2.262-0.74c-0.424,0-0.834,0.016-1.221,0.05
		c-0.392,0.033-0.753,0.073-1.09,0.118c-0.043,0.514-0.093,1.037-0.138,1.572c-0.045,0.539-0.066,1.059-0.066,1.576v2.712
		C1022.098,49.247,1022.285,49.274,1022.54,49.296 M1020.185,44.531c-0.045-0.816-0.104-1.535-0.167-2.156
		c0.442,0.038,0.896,0.077,1.35,0.113c0.465,0.033,0.918,0.049,1.394,0.049c0.442,0,0.896-0.027,1.36-0.085
		c0.453-0.05,0.9-0.077,1.35-0.077c0.574,0,1.127,0.06,1.641,0.199c0.515,0.136,0.957,0.337,1.333,0.616
		c0.387,0.282,0.685,0.628,0.906,1.042c0.232,0.413,0.337,0.905,0.337,1.488c0,0.668-0.161,1.264-0.481,1.772
		c-0.331,0.518-0.724,0.946-1.188,1.291c-0.469,0.346-0.969,0.606-1.499,0.788c-0.52,0.175-0.994,0.277-1.414,0.299
		c0.442,0.539,0.939,1.162,1.471,1.875c0.535,0.714,1.082,1.421,1.636,2.123c0.559,0.708,1.083,1.355,1.582,1.949
		c0.485,0.589,0.899,1.028,1.237,1.319v0.163c-0.254-0.039-0.476-0.077-0.687-0.113c-0.216-0.033-0.408-0.05-0.591-0.05
		c-0.309,0-0.747,0.056-1.31,0.163c-0.818-1.2-1.671-2.394-2.554-3.577c-0.885-1.183-1.825-2.377-2.825-3.582h-1.079v2.344
		c0,1.606,0.066,3.215,0.204,4.815c-0.446-0.107-0.802-0.163-1.078-0.163c-0.286,0-0.652,0.056-1.095,0.163
		c0.04-0.774,0.09-1.556,0.145-2.338c0.061-0.78,0.089-1.562,0.089-2.342v-5.724C1020.251,46.134,1020.23,45.346,1020.185,44.531
		 M1014.943,54.206c0.542,1.302,1.295,2.44,2.243,3.414c0.947,0.967,2.067,1.739,3.363,2.311c1.294,0.567,2.676,0.854,4.146,0.854
		c1.481,0,2.863-0.287,4.157-0.854c1.295-0.572,2.412-1.344,3.362-2.311c0.949-0.973,1.698-2.111,2.244-3.414
		c0.542-1.308,0.818-2.695,0.818-4.166c0-1.479-0.276-2.866-0.818-4.173c-0.546-1.302-1.295-2.438-2.244-3.414
		c-0.95-0.967-2.067-1.736-3.362-2.308c-1.294-0.568-2.676-0.849-4.157-0.849c-1.47,0-2.852,0.281-4.146,0.849
		c-1.296,0.572-2.416,1.34-3.363,2.308c-0.948,0.976-1.701,2.112-2.243,3.414c-0.547,1.307-0.818,2.695-0.818,4.173
		C1014.125,51.51,1014.396,52.897,1014.943,54.206 M1013.656,45.368c0.623-1.46,1.475-2.733,2.559-3.814
		c1.084-1.082,2.355-1.939,3.815-2.566c1.458-0.622,3.023-0.934,4.665-0.934c1.658,0,3.219,0.313,4.677,0.934
		c1.461,0.627,2.731,1.484,3.814,2.566c1.084,1.081,1.937,2.354,2.556,3.814c0.629,1.462,0.939,3.019,0.939,4.671
		c0,1.67-0.311,3.231-0.939,4.681c-0.619,1.457-1.472,2.714-2.556,3.781c-1.083,1.079-2.354,1.916-3.814,2.516
		c-1.458,0.604-3.019,0.906-4.677,0.906c-1.642,0-3.207-0.302-4.665-0.906c-1.46-0.6-2.731-1.438-3.815-2.516
		c-1.084-1.067-1.936-2.324-2.559-3.781c-0.625-1.449-0.936-3.01-0.936-4.681C1012.721,48.387,1013.031,46.83,1013.656,45.368"/>
	<path fill="#ABABAB" d="M1008.253,153.325c-0.584,0.995-1.358,1.703-2.321,2.145c-0.951,0.432-2.034,0.653-3.238,0.653
		c-1.361,0-2.567-0.266-3.605-0.796c-1.034-0.53-1.891-1.25-2.564-2.156c-0.676-0.907-1.183-1.957-1.521-3.129
		c-0.336-1.183-0.515-2.41-0.515-3.682c0-1.227,0.179-2.411,0.515-3.555c0.339-1.144,0.846-2.162,1.521-3.029
		c0.674-0.874,1.52-1.576,2.531-2.106c1.018-0.525,2.188-0.795,3.538-0.795c1.083,0,2.118,0.231,3.096,0.695
		c0.973,0.454,1.746,1.139,2.317,2.029h0.071v-9.199h5.021v25.271h-4.777v-2.344H1008.253z M1008.037,144.287
		c-0.136-0.697-0.38-1.31-0.723-1.842c-0.344-0.531-0.779-0.961-1.327-1.288c-0.541-0.326-1.227-0.492-2.051-0.492
		s-1.521,0.166-2.085,0.492c-0.574,0.326-1.026,0.763-1.364,1.311c-0.349,0.542-0.592,1.16-0.741,1.852
		c-0.16,0.696-0.232,1.42-0.232,2.184c0,0.708,0.082,1.415,0.249,2.123c0.167,0.707,0.431,1.333,0.795,1.892
		c0.365,0.552,0.825,1,1.384,1.343c0.552,0.337,1.215,0.514,1.995,0.514c0.824,0,1.514-0.166,2.071-0.497
		c0.556-0.333,0.997-0.775,1.322-1.328c0.339-0.552,0.571-1.183,0.707-1.891c0.145-0.708,0.216-1.437,0.216-2.189
		C1008.253,145.707,1008.182,144.982,1008.037,144.287 M980.158,151.28c0.758,0.729,1.84,1.095,3.256,1.095
		c1.011,0,1.893-0.254,2.621-0.763c0.729-0.509,1.178-1.04,1.344-1.603h4.422c-0.707,2.189-1.791,3.753-3.25,4.699
		c-1.471,0.939-3.234,1.415-5.313,1.415c-1.438,0-2.735-0.232-3.887-0.686c-1.16-0.465-2.146-1.117-2.94-1.968
		c-0.807-0.852-1.421-1.864-1.857-3.041c-0.432-1.183-0.652-2.477-0.652-3.892c0-1.371,0.221-2.643,0.674-3.826
		c0.443-1.172,1.078-2.195,1.902-3.063c0.829-0.857,1.813-1.532,2.959-2.029c1.144-0.492,2.408-0.746,3.802-0.746
		c1.554,0,2.914,0.304,4.075,0.906c1.149,0.597,2.1,1.404,2.841,2.421c0.741,1.012,1.284,2.172,1.61,3.472
		c0.336,1.293,0.447,2.654,0.359,4.069h-13.197C978.992,149.367,979.407,150.539,980.158,151.28 M985.837,141.654
		c-0.604-0.663-1.51-0.989-2.738-0.989c-0.806,0-1.469,0.133-2,0.398c-0.531,0.277-0.958,0.614-1.271,1.017
		c-0.321,0.399-0.543,0.818-0.675,1.272c-0.133,0.448-0.205,0.852-0.227,1.199h8.165
		C986.858,143.28,986.439,142.312,985.837,141.654 M965.62,130.399h5.028v4.141h-5.028V130.399z M970.638,155.669h-5.018v-18.294
		h5.018V155.669z M951.078,140.731v-3.361h3.009v-1.415c0-1.625,0.508-2.963,1.521-3.998c1.011-1.033,2.548-1.559,4.594-1.559
		c0.453,0,0.9,0.017,1.349,0.049c0.448,0.044,0.884,0.072,1.305,0.094v3.754c-0.585-0.078-1.194-0.111-1.836-0.111
		c-0.685,0-1.172,0.161-1.471,0.476c-0.288,0.32-0.437,0.857-0.437,1.614v1.094h3.468v3.361h-3.468v14.938h-5.024v-14.938H951.078z
		 M948.845,155.669h-5.019v-18.294h5.019V155.669z M943.826,130.399h5.019v4.141h-5.019V130.399z M939.541,155.669h-5.025v-25.271
		h5.025V155.669z M917.361,137.37v2.333h0.066c0.613-0.984,1.393-1.703,2.337-2.156c0.94-0.454,1.979-0.673,3.114-0.673
		c1.442,0,2.681,0.275,3.715,0.817c1.031,0.541,1.896,1.26,2.581,2.156c0.685,0.896,1.193,1.946,1.526,3.129
		c0.32,1.194,0.485,2.438,0.485,3.737c0,1.227-0.165,2.399-0.485,3.538c-0.333,1.128-0.835,2.134-1.508,3.007
		c-0.671,0.874-1.512,1.57-2.506,2.084c-1.013,0.52-2.184,0.78-3.528,0.78c-1.127,0-2.177-0.232-3.129-0.686
		c-0.955-0.465-1.746-1.139-2.354-2.034h-0.072v8.668h-5.025V137.37H917.361z M923.89,151.877c0.553-0.333,0.994-0.764,1.338-1.288
		c0.343-0.537,0.587-1.15,0.724-1.858c0.144-0.708,0.216-1.432,0.216-2.161s-0.077-1.448-0.232-2.155
		c-0.154-0.708-0.409-1.339-0.757-1.892c-0.359-0.559-0.813-1.006-1.366-1.349c-0.553-0.343-1.227-0.509-2.032-0.509
		c-0.825,0-1.517,0.166-2.068,0.509c-0.553,0.343-1.009,0.785-1.345,1.327c-0.349,0.542-0.58,1.172-0.725,1.879
		c-0.144,0.708-0.214,1.438-0.214,2.189c0,0.729,0.081,1.454,0.232,2.161c0.147,0.708,0.403,1.321,0.741,1.858
		c0.336,0.524,0.8,0.955,1.363,1.288c0.564,0.332,1.25,0.497,2.046,0.497C922.639,152.375,923.331,152.209,923.89,151.877
		 M885.234,137.37v2.477h0.066c0.664-0.946,1.459-1.676,2.389-2.195c0.936-0.514,2.001-0.778,3.206-0.778
		c1.15,0,2.206,0.22,3.162,0.673s1.682,1.239,2.179,2.366c0.543-0.796,1.283-1.504,2.211-2.122c0.93-0.609,2.035-0.917,3.307-0.917
		c0.961,0,1.869,0.121,2.691,0.353c0.825,0.238,1.531,0.62,2.125,1.134c0.589,0.52,1.043,1.2,1.375,2.04
		c0.331,0.835,0.498,1.846,0.498,3.018v12.251h-5.031v-10.372c0-0.613-0.021-1.194-0.066-1.736
		c-0.049-0.541-0.177-1.012-0.387-1.415c-0.21-0.398-0.53-0.719-0.939-0.957c-0.416-0.231-0.974-0.348-1.682-0.348
		s-1.283,0.133-1.713,0.403c-0.443,0.271-0.78,0.625-1.029,1.056c-0.248,0.442-0.413,0.94-0.492,1.493
		c-0.082,0.551-0.127,1.116-0.127,1.68v10.194h-5.024v-10.266c0-0.548-0.013-1.083-0.033-1.608
		c-0.021-0.532-0.128-1.029-0.305-1.471c-0.172-0.448-0.465-0.807-0.879-1.078c-0.414-0.271-1.022-0.403-1.825-0.403
		c-0.237,0-0.545,0.044-0.938,0.155c-0.393,0.111-0.762,0.31-1.134,0.596c-0.359,0.299-0.676,0.725-0.928,1.277
		c-0.268,0.56-0.394,1.277-0.394,2.184v10.615h-5.025V137.37H885.234z M876.212,155.669h-5.025v-18.294h5.025V155.669z
		 M871.187,130.399h5.025v4.141h-5.025V130.399z M852.684,149.439c0.304,0.592,0.708,1.066,1.221,1.432
		c0.504,0.365,1.102,0.631,1.787,0.807c0.678,0.183,1.388,0.266,2.122,0.266c0.498,0,1.018-0.033,1.587-0.122
		c0.568-0.077,1.1-0.237,1.598-0.476c0.491-0.237,0.906-0.563,1.232-0.973c0.337-0.414,0.498-0.934,0.498-1.576
		c0-0.68-0.221-1.238-0.658-1.664c-0.431-0.42-1.006-0.774-1.715-1.061c-0.706-0.277-1.514-0.531-2.404-0.742
		c-0.895-0.209-1.807-0.452-2.725-0.707c-0.939-0.233-1.857-0.521-2.765-0.868c-0.89-0.338-1.692-0.78-2.399-1.328
		c-0.707-0.542-1.282-1.222-1.72-2.029c-0.437-0.818-0.646-1.803-0.646-2.958c0-1.299,0.276-2.421,0.829-3.377
		c0.554-0.962,1.283-1.747,2.173-2.389c0.896-0.635,1.907-1.111,3.041-1.415c1.134-0.31,2.261-0.464,3.4-0.464
		c1.321,0,2.587,0.155,3.802,0.442c1.218,0.298,2.289,0.773,3.241,1.437c0.939,0.664,1.691,1.503,2.245,2.532
		c0.551,1.017,0.828,2.267,0.828,3.726h-5.373c-0.045-0.751-0.211-1.371-0.476-1.874c-0.276-0.492-0.636-0.879-1.084-1.167
		c-0.447-0.282-0.962-0.486-1.537-0.597c-0.581-0.122-1.215-0.183-1.89-0.183c-0.454,0-0.906,0.05-1.349,0.139
		c-0.449,0.099-0.857,0.265-1.217,0.498c-0.37,0.232-0.677,0.536-0.907,0.884c-0.242,0.359-0.354,0.807-0.354,1.349
		c0,0.492,0.089,0.896,0.286,1.2c0.184,0.303,0.559,0.591,1.112,0.851c0.547,0.26,1.321,0.52,2.301,0.779
		c0.977,0.254,2.26,0.586,3.835,0.996c0.472,0.088,1.127,0.253,1.963,0.508c0.841,0.244,1.67,0.642,2.493,1.184
		c0.825,0.542,1.542,1.271,2.146,2.178c0.603,0.906,0.901,2.067,0.901,3.483c0,1.16-0.227,2.228-0.675,3.217
		c-0.446,0.995-1.116,1.847-2.002,2.565c-0.878,0.725-1.979,1.283-3.282,1.681c-1.312,0.404-2.831,0.608-4.545,0.608
		c-1.392,0-2.747-0.178-4.058-0.52c-1.307-0.337-2.461-0.874-3.463-1.604c-1.004-0.741-1.802-1.669-2.387-2.797
		c-0.598-1.133-0.884-2.477-0.851-4.036h5.373C852.219,148.128,852.373,148.848,852.684,149.439 M833.383,157.008
		c-0.205,0.944-0.635,1.823-1.299,2.636c-0.651,0.813-1.614,1.499-2.863,2.068c-1.251,0.57-2.918,0.846-5.021,0.846
		c-0.9,0-1.813-0.11-2.748-0.332c-0.923-0.226-1.773-0.569-2.548-1.04c-0.764-0.475-1.404-1.083-1.901-1.824
		c-0.515-0.746-0.802-1.637-0.875-2.676h4.995c0.236,0.94,0.688,1.603,1.376,1.968c0.685,0.365,1.474,0.553,2.364,0.553
		c1.416,0,2.455-0.431,3.103-1.277c0.646-0.846,0.961-1.924,0.938-3.223v-2.405h-0.071c-0.541,0.967-1.316,1.679-2.321,2.139
		c-0.996,0.458-2.052,0.691-3.163,0.691c-1.369,0-2.542-0.244-3.539-0.724c-0.988-0.487-1.801-1.145-2.441-1.979
		c-0.636-0.841-1.101-1.819-1.395-2.941c-0.298-1.117-0.447-2.3-0.447-3.556c0-1.183,0.177-2.321,0.514-3.411
		c0.343-1.1,0.847-2.068,1.503-2.908c0.664-0.835,1.482-1.499,2.462-1.996c0.977-0.492,2.105-0.746,3.377-0.746
		c1.206,0,2.261,0.22,3.169,0.673c0.912,0.454,1.669,1.205,2.282,2.267h0.071v-2.444h4.777v17.127
		C833.682,155.227,833.576,156.062,833.383,157.008 M826.5,150.921c0.543-0.283,0.989-0.658,1.338-1.134
		c0.36-0.465,0.624-1.005,0.795-1.603c0.179-0.609,0.271-1.239,0.271-1.903c0-0.751-0.071-1.459-0.215-2.134
		c-0.144-0.674-0.376-1.271-0.707-1.786c-0.332-0.52-0.764-0.934-1.305-1.243c-0.548-0.299-1.229-0.454-2.058-0.454
		c-0.707,0-1.315,0.145-1.819,0.421c-0.507,0.287-0.934,0.663-1.275,1.149c-0.343,0.486-0.586,1.039-0.741,1.659
		c-0.156,0.63-0.232,1.283-0.232,1.968c0,0.663,0.065,1.315,0.194,1.962c0.132,0.652,0.358,1.232,0.675,1.752
		c0.314,0.52,0.733,0.941,1.253,1.277c0.52,0.326,1.173,0.492,1.946,0.492C825.328,151.346,825.958,151.203,826.5,150.921
		 M799.714,137.37v2.543h0.106c0.635-1.055,1.459-1.83,2.476-2.31c1.018-0.487,2.057-0.729,3.113-0.729
		c1.35,0,2.449,0.187,3.306,0.552c0.867,0.365,1.542,0.873,2.04,1.514c0.491,0.654,0.841,1.449,1.04,2.378
		c0.204,0.928,0.298,1.963,0.298,3.097v11.255h-5.02v-10.339c0-1.509-0.237-2.631-0.707-3.377c-0.476-0.746-1.305-1.111-2.511-1.111
		c-1.371,0-2.366,0.403-2.975,1.216c-0.607,0.812-0.917,2.156-0.917,4.014v9.597h-5.025V137.37H799.714z M790.798,155.669h-5.021
		v-18.294h5.021V155.669z M785.772,130.399h5.019v4.141h-5.019V130.399z M769.253,137.37v2.543h0.105
		c0.636-1.055,1.458-1.83,2.476-2.31c1.012-0.487,2.047-0.729,3.112-0.729c1.344,0,2.45,0.187,3.307,0.552
		c0.857,0.365,1.543,0.873,2.042,1.514c0.49,0.654,0.839,1.449,1.037,2.378c0.199,0.928,0.299,1.963,0.299,3.097v11.255h-5.02
		v-10.339c0-1.509-0.238-2.631-0.707-3.377c-0.477-0.746-1.316-1.111-2.511-1.111c-1.37,0-2.366,0.403-2.975,1.216
		c-0.614,0.812-0.923,2.156-0.923,4.014v9.597h-5.025V137.37H769.253z M748.091,137.37v2.543h0.104
		c0.641-1.055,1.465-1.83,2.48-2.31c1.014-0.487,2.053-0.729,3.114-0.729c1.343,0,2.443,0.187,3.307,0.552
		c0.862,0.365,1.541,0.873,2.033,1.514c0.498,0.654,0.841,1.449,1.051,2.378c0.198,0.928,0.299,1.963,0.299,3.097v11.255h-5.031
		v-10.339c0-1.509-0.231-2.631-0.708-3.377c-0.464-0.746-1.304-1.111-2.504-1.111c-1.371,0-2.36,0.403-2.975,1.216
		c-0.614,0.812-0.924,2.156-0.924,4.014v9.597h-5.019V137.37H748.091z M733.429,147.15c-0.327,0.105-0.664,0.199-1.035,0.271
		c-0.358,0.066-0.739,0.127-1.144,0.177c-0.403,0.044-0.801,0.1-1.2,0.177c-0.38,0.066-0.751,0.165-1.116,0.281
		c-0.363,0.117-0.687,0.277-0.957,0.476c-0.27,0.205-0.484,0.453-0.651,0.769c-0.171,0.298-0.248,0.685-0.248,1.16
		c0,0.449,0.077,0.829,0.248,1.134c0.167,0.304,0.388,0.547,0.669,0.725c0.281,0.177,0.619,0.298,0.99,0.376
		c0.382,0.066,0.767,0.099,1.172,0.099c0.989,0,1.752-0.166,2.3-0.491c0.542-0.338,0.939-0.725,1.199-1.189
		c0.26-0.458,0.422-0.923,0.48-1.393c0.06-0.476,0.083-0.852,0.083-1.127v-1.88C734.009,146.901,733.744,147.05,733.429,147.15
		 M723.506,140.057c0.513-0.773,1.177-1.404,1.979-1.873c0.797-0.471,1.703-0.808,2.709-1.006c1-0.2,2.014-0.304,3.018-0.304
		c0.93,0,1.858,0.065,2.798,0.199c0.94,0.126,1.808,0.381,2.587,0.762c0.78,0.376,1.415,0.896,1.912,1.57
		c0.488,0.669,0.742,1.564,0.742,2.675v9.515c0,0.824,0.044,1.614,0.144,2.371c0.089,0.752,0.255,1.321,0.487,1.703h-5.092
		c-0.095-0.288-0.172-0.575-0.228-0.873c-0.066-0.299-0.099-0.597-0.122-0.902c-0.806,0.824-1.752,1.405-2.831,1.73
		c-1.093,0.332-2.198,0.498-3.333,0.498c-0.867,0-1.686-0.105-2.437-0.316c-0.753-0.215-1.416-0.546-1.979-0.989
		c-0.57-0.454-1.014-1.017-1.328-1.703c-0.32-0.685-0.48-1.498-0.48-2.444c0-1.033,0.183-1.89,0.547-2.565
		c0.365-0.674,0.841-1.206,1.417-1.603c0.573-0.403,1.237-0.708,1.979-0.907c0.739-0.198,1.499-0.359,2.251-0.475
		c0.751-0.122,1.496-0.21,2.227-0.288c0.73-0.066,1.384-0.177,1.952-0.315c0.564-0.138,1.012-0.348,1.343-0.624
		c0.327-0.267,0.477-0.664,0.453-1.184c0-0.542-0.083-0.973-0.265-1.288c-0.177-0.315-0.41-0.569-0.708-0.741
		c-0.294-0.183-0.631-0.294-1.024-0.36c-0.391-0.055-0.811-0.083-1.253-0.083c-0.995,0-1.771,0.21-2.334,0.636
		c-0.563,0.42-0.9,1.128-0.995,2.124h-5.024C722.688,141.815,722.986,140.842,723.506,140.057 M718.695,155.669h-5.02v-25.271h5.02
		V155.669z M701.667,130.399c1.587,0,2.931,0.232,4.036,0.691c1.111,0.458,2.012,1.062,2.71,1.825
		c0.695,0.751,1.204,1.614,1.524,2.582c0.315,0.967,0.477,1.968,0.477,3.001c0,1.018-0.161,2.018-0.477,2.992
		c-0.32,0.978-0.829,1.846-1.524,2.603c-0.698,0.752-1.599,1.359-2.71,1.824c-1.105,0.458-2.449,0.691-4.036,0.691h-5.837v9.061
		h-5.552v-25.271H701.667z M700.152,142.291c0.629,0,1.244-0.045,1.842-0.144c0.586-0.1,1.101-0.277,1.553-0.554
		c0.448-0.265,0.807-0.646,1.078-1.144c0.271-0.492,0.403-1.145,0.403-1.952c0-0.796-0.132-1.449-0.403-1.935
		c-0.271-0.503-0.63-0.885-1.078-1.161c-0.452-0.265-0.967-0.453-1.553-0.542c-0.598-0.094-1.213-0.144-1.842-0.144h-4.322v7.575
		H700.152z M667.988,140.665c-0.801,0-1.471,0.177-2.019,0.542c-0.547,0.365-0.983,0.84-1.321,1.415
		c-0.347,0.587-0.586,1.217-0.729,1.914c-0.138,0.696-0.21,1.388-0.21,2.073c0,0.658,0.072,1.332,0.21,2.018
		c0.144,0.686,0.37,1.3,0.696,1.858c0.31,0.552,0.741,1.005,1.288,1.359c0.542,0.354,1.201,0.531,1.98,0.531
		c1.199,0,2.128-0.337,2.774-1.012c0.646-0.674,1.057-1.575,1.222-2.704h4.843c-0.326,2.428-1.271,4.28-2.83,5.551
		c-1.553,1.272-3.551,1.914-5.971,1.914c-1.371,0-2.631-0.232-3.771-0.686c-1.148-0.465-2.12-1.106-2.918-1.936
		c-0.807-0.829-1.426-1.802-1.879-2.952c-0.449-1.144-0.671-2.398-0.671-3.77c0-1.415,0.206-2.725,0.62-3.942
		c0.414-1.216,1.017-2.261,1.819-3.146c0.806-0.89,1.785-1.576,2.94-2.073c1.156-0.492,2.477-0.746,3.965-0.746
		c1.078,0,2.128,0.143,3.129,0.431c1.001,0.276,1.896,0.708,2.691,1.288c0.785,0.581,1.427,1.299,1.924,2.156
		c0.498,0.862,0.78,1.879,0.846,3.062h-4.913C671.371,141.71,670.133,140.665,667.988,140.665 M655.111,155.669h-5.024v-18.294
		h5.024V155.669z M650.087,130.399h5.021v4.141h-5.021V130.399z M632.927,137.37v2.333h0.065c0.62-0.984,1.394-1.703,2.34-2.156
		c0.939-0.454,1.984-0.673,3.112-0.673c1.437,0,2.676,0.275,3.715,0.817c1.039,0.541,1.896,1.26,2.581,2.156
		c0.687,0.896,1.195,1.946,1.522,3.129c0.33,1.194,0.496,2.438,0.496,3.737c0,1.227-0.166,2.399-0.496,3.538
		c-0.327,1.128-0.831,2.134-1.506,3.007c-0.662,0.874-1.503,1.57-2.51,2.084c-1,0.52-2.178,0.78-3.515,0.78
		c-1.134,0-2.18-0.232-3.13-0.686c-0.961-0.465-1.748-1.139-2.355-2.034h-0.071v8.668h-5.025V137.37H632.927z M639.449,151.877
		c0.56-0.333,1.008-0.764,1.35-1.288c0.344-0.537,0.586-1.15,0.729-1.858c0.139-0.708,0.212-1.432,0.212-2.161
		s-0.078-1.448-0.232-2.155c-0.155-0.708-0.409-1.339-0.762-1.892c-0.354-0.559-0.809-1.006-1.361-1.349s-1.233-0.509-2.034-0.509
		c-0.829,0-1.515,0.166-2.072,0.509c-0.548,0.343-1.002,0.785-1.344,1.327c-0.344,0.542-0.581,1.172-0.725,1.879
		c-0.14,0.708-0.217,1.438-0.217,2.189c0,0.729,0.077,1.454,0.232,2.161c0.156,0.708,0.404,1.321,0.741,1.858
		c0.349,0.524,0.802,0.955,1.366,1.288c0.568,0.332,1.256,0.497,2.051,0.497C638.212,152.375,638.896,152.209,639.449,151.877
		 M606.462,142.556c0.448-1.194,1.077-2.211,1.907-3.046c0.83-0.834,1.813-1.487,2.975-1.94c1.149-0.464,2.454-0.695,3.892-0.695
		c1.437,0,2.743,0.231,3.915,0.695c1.16,0.454,2.156,1.106,2.985,1.94c0.818,0.835,1.459,1.853,1.911,3.046
		c0.443,1.189,0.67,2.521,0.67,3.981c0,1.459-0.227,2.786-0.67,3.958c-0.452,1.183-1.093,2.189-1.911,3.024
		c-0.829,0.84-1.825,1.487-2.985,1.93c-1.172,0.454-2.479,0.675-3.915,0.675c-1.438,0-2.742-0.221-3.892-0.675
		c-1.161-0.442-2.145-1.089-2.975-1.93c-0.83-0.835-1.459-1.841-1.907-3.024c-0.448-1.172-0.675-2.499-0.675-3.958
		C605.787,145.077,606.014,143.745,606.462,142.556 M611.022,148.671c0.144,0.696,0.387,1.327,0.725,1.879
		c0.349,0.553,0.803,0.995,1.365,1.328c0.563,0.332,1.271,0.497,2.123,0.497c0.853,0,1.56-0.166,2.14-0.497
		c0.581-0.333,1.033-0.775,1.383-1.328c0.338-0.552,0.579-1.183,0.723-1.879c0.146-0.691,0.212-1.405,0.212-2.134
		s-0.066-1.449-0.212-2.156c-0.144-0.708-0.385-1.338-0.723-1.879c-0.35-0.542-0.802-0.984-1.383-1.327
		c-0.58-0.343-1.287-0.509-2.14-0.509c-0.852,0-1.56,0.166-2.123,0.509c-0.563,0.343-1.017,0.785-1.365,1.327
		c-0.338,0.542-0.581,1.172-0.725,1.879c-0.143,0.708-0.21,1.427-0.21,2.156S610.88,147.979,611.022,148.671 M597.826,137.37v3.395
		h0.072c0.232-0.564,0.553-1.084,0.951-1.571c0.403-0.487,0.861-0.896,1.382-1.244c0.52-0.337,1.073-0.603,1.67-0.791
		c0.587-0.194,1.194-0.287,1.835-0.287c0.332,0,0.69,0.06,1.095,0.176v4.672c-0.232-0.044-0.521-0.089-0.852-0.128
		c-0.327-0.032-0.642-0.043-0.95-0.043c-0.919,0-1.698,0.149-2.334,0.453c-0.641,0.309-1.149,0.729-1.543,1.26
		c-0.387,0.532-0.668,1.151-0.833,1.858c-0.167,0.708-0.245,1.47-0.245,2.299v8.249h-5.025V137.37H597.826z M576.912,130.399v9.514
		h0.111c0.631-1.055,1.448-1.83,2.442-2.31c0.984-0.487,1.958-0.729,2.896-0.729c1.351,0,2.451,0.187,3.308,0.552
		c0.861,0.365,1.542,0.873,2.034,1.514c0.499,0.654,0.846,1.449,1.05,2.378c0.2,0.928,0.298,1.963,0.298,3.097v11.255h-5.03v-10.339
		c0-1.509-0.231-2.631-0.707-3.377c-0.465-0.746-1.304-1.111-2.504-1.111c-1.371,0-2.36,0.403-2.97,1.216
		c-0.62,0.812-0.929,2.156-0.929,4.014v9.597h-5.02v-25.271H576.912z M569.316,137.37v3.361h-3.682v9.056
		c0,0.851,0.143,1.416,0.419,1.703c0.288,0.282,0.852,0.42,1.703,0.42c0.281,0,0.548-0.011,0.808-0.033
		c0.26-0.022,0.509-0.062,0.752-0.105v3.897c-0.432,0.066-0.906,0.111-1.416,0.138c-0.525,0.023-1.033,0.034-1.525,0.034
		c-0.784,0-1.516-0.055-2.211-0.161c-0.697-0.104-1.31-0.314-1.847-0.618c-0.53-0.31-0.951-0.741-1.25-1.311
		c-0.309-0.564-0.464-1.31-0.464-2.228v-10.792h-3.041v-3.361h3.041v-5.484h5.031v5.484H569.316z M542.88,137.37v2.543h0.108
		c0.632-1.055,1.46-1.83,2.473-2.31c1.012-0.487,2.057-0.729,3.112-0.729c1.35,0,2.442,0.187,3.307,0.552
		c0.867,0.365,1.542,0.873,2.039,1.514c0.493,0.654,0.847,1.449,1.045,2.378c0.2,0.928,0.299,1.963,0.299,3.097v11.255h-5.02
		v-10.339c0-1.509-0.243-2.631-0.709-3.377c-0.474-0.746-1.31-1.111-2.515-1.111c-1.37,0-2.359,0.403-2.974,1.216
		c-0.614,0.812-0.913,2.156-0.913,4.014v9.597h-5.03V137.37H542.88z M528.212,147.15c-0.314,0.105-0.658,0.199-1.022,0.271
		c-0.37,0.066-0.752,0.127-1.149,0.177c-0.405,0.044-0.807,0.1-1.206,0.177c-0.377,0.066-0.752,0.165-1.111,0.281
		c-0.37,0.117-0.684,0.277-0.956,0.476c-0.271,0.205-0.492,0.453-0.659,0.769c-0.159,0.298-0.249,0.685-0.249,1.16
		c0,0.449,0.09,0.829,0.249,1.134c0.167,0.304,0.395,0.547,0.674,0.725c0.284,0.177,0.615,0.298,0.992,0.376
		c0.381,0.066,0.762,0.099,1.165,0.099c0.99,0,1.765-0.166,2.301-0.491c0.542-0.338,0.944-0.725,1.204-1.189
		c0.26-0.458,0.421-0.923,0.477-1.393c0.061-0.476,0.095-0.852,0.095-1.127v-1.88C528.793,146.901,528.538,147.05,528.212,147.15
		 M518.288,140.057c0.52-0.773,1.179-1.404,1.979-1.873c0.808-0.471,1.703-0.808,2.708-1.006c1.002-0.2,2.014-0.304,3.031-0.304
		c0.918,0,1.847,0.065,2.786,0.199c0.95,0.126,1.807,0.381,2.586,0.762c0.779,0.376,1.416,0.896,1.914,1.57
		c0.498,0.669,0.74,1.564,0.74,2.675v9.515c0,0.824,0.05,1.614,0.145,2.371c0.089,0.752,0.254,1.321,0.497,1.703h-5.097
		c-0.1-0.288-0.173-0.575-0.233-0.873c-0.055-0.299-0.099-0.597-0.122-0.902c-0.801,0.824-1.745,1.405-2.831,1.73
		c-1.081,0.332-2.193,0.498-3.326,0.498c-0.873,0-1.686-0.105-2.438-0.316c-0.758-0.215-1.416-0.546-1.985-0.989
		c-0.563-0.454-1.005-1.017-1.327-1.703c-0.319-0.685-0.475-1.498-0.475-2.444c0-1.033,0.177-1.89,0.548-2.565
		c0.359-0.674,0.835-1.206,1.415-1.603c0.58-0.403,1.243-0.708,1.984-0.907c0.741-0.198,1.487-0.359,2.245-0.475
		c0.751-0.122,1.492-0.21,2.223-0.288c0.741-0.066,1.382-0.177,1.951-0.315c0.563-0.138,1.012-0.348,1.343-0.624
		c0.333-0.267,0.486-0.664,0.466-1.184c0-0.542-0.095-0.973-0.266-1.288c-0.179-0.315-0.422-0.569-0.708-0.741
		c-0.299-0.183-0.642-0.294-1.029-0.36c-0.388-0.055-0.807-0.083-1.259-0.083c-0.985,0-1.771,0.21-2.334,0.636
		c-0.563,0.42-0.896,1.128-0.995,2.124h-5.02C517.469,141.815,517.768,140.842,518.288,140.057 M513.479,155.669h-5.021v-25.271
		h5.021V155.669z M504.169,155.669h-5.021v-18.294h5.021V155.669z M499.148,130.399h5.021v4.141h-5.021V130.399z M482.873,130.399
		v9.514h0.11c0.63-1.055,1.449-1.83,2.433-2.31c0.996-0.487,1.963-0.729,2.908-0.729c1.339,0,2.443,0.187,3.306,0.552
		c0.863,0.365,1.537,0.873,2.035,1.514c0.497,0.654,0.841,1.449,1.044,2.378c0.2,0.928,0.305,1.963,0.305,3.097v11.255h-5.031
		v-10.339c0-1.509-0.232-2.631-0.707-3.377c-0.469-0.746-1.305-1.111-2.511-1.111c-1.37,0-2.355,0.403-2.974,1.216
		c-0.613,0.812-0.918,2.156-0.918,4.014v9.597h-5.021v-25.271H482.873z M466,130.399c1.576,0,2.919,0.232,4.025,0.691
		c1.11,0.458,2.018,1.062,2.707,1.825c0.699,0.751,1.206,1.614,1.527,2.582c0.32,0.967,0.475,1.968,0.475,3.001
		c0,1.018-0.154,2.018-0.475,2.992c-0.321,0.978-0.828,1.846-1.527,2.603c-0.689,0.752-1.597,1.359-2.707,1.824
		c-1.106,0.458-2.449,0.691-4.025,0.691h-5.838v9.061H454.6v-25.271H466z M464.475,142.291c0.642,0,1.249-0.045,1.835-0.144
		c0.591-0.1,1.117-0.277,1.56-0.554c0.447-0.265,0.808-0.646,1.084-1.144c0.27-0.492,0.408-1.145,0.408-1.952
		c0-0.796-0.139-1.449-0.408-1.935c-0.276-0.503-0.637-0.885-1.084-1.161c-0.442-0.265-0.969-0.453-1.56-0.542
		c-0.586-0.094-1.193-0.144-1.835-0.144h-4.313v7.575H464.475z M435.25,153.325c-0.597,0.995-1.364,1.703-2.32,2.145
		c-0.951,0.432-2.035,0.653-3.241,0.653c-1.36,0-2.564-0.266-3.604-0.796s-1.892-1.25-2.565-2.156
		c-0.675-0.907-1.183-1.957-1.526-3.129c-0.331-1.183-0.508-2.41-0.508-3.682c0-1.227,0.177-2.411,0.508-3.555
		c0.344-1.144,0.852-2.162,1.526-3.029c0.674-0.874,1.516-1.576,2.531-2.106c1.013-0.525,2.19-0.795,3.539-0.795
		c1.083,0,2.117,0.231,3.096,0.695c0.973,0.454,1.746,1.139,2.316,2.029h0.067v-9.199h5.024v25.271h-4.776v-2.344H435.25z
		 M435.035,144.287c-0.138-0.697-0.382-1.31-0.725-1.842c-0.342-0.531-0.785-0.961-1.327-1.288
		c-0.541-0.326-1.226-0.492-2.056-0.492c-0.824,0-1.521,0.166-2.085,0.492c-0.569,0.326-1.022,0.763-1.358,1.311
		c-0.35,0.542-0.592,1.16-0.742,1.852c-0.16,0.696-0.231,1.42-0.231,2.184c0,0.708,0.078,1.415,0.249,2.123
		c0.166,0.707,0.431,1.333,0.796,1.892c0.364,0.552,0.823,1,1.376,1.343c0.559,0.337,1.222,0.514,1.996,0.514
		c0.83,0,1.521-0.166,2.078-0.497c0.553-0.333,0.996-0.775,1.322-1.328c0.325-0.552,0.569-1.183,0.707-1.891
		c0.138-0.708,0.215-1.437,0.215-2.189C435.25,145.707,435.173,144.982,435.035,144.287 M405.883,137.37v2.543h0.106
		c0.635-1.055,1.459-1.83,2.481-2.31c1.007-0.487,2.047-0.729,3.107-0.729c1.35,0,2.448,0.187,3.306,0.552
		c0.862,0.365,1.542,0.873,2.035,1.514c0.497,0.654,0.846,1.449,1.051,2.378c0.198,0.928,0.298,1.963,0.298,3.097v11.255h-5.031
		v-10.339c0-1.509-0.231-2.631-0.707-3.377c-0.464-0.746-1.305-1.111-2.506-1.111c-1.37,0-2.359,0.403-2.967,1.216
		c-0.62,0.812-0.93,2.156-0.93,4.014v9.597h-5.02V137.37H405.883z M391.217,147.15c-0.32,0.105-0.658,0.199-1.028,0.271
		c-0.359,0.066-0.747,0.127-1.151,0.177c-0.402,0.044-0.801,0.1-1.198,0.177c-0.377,0.066-0.747,0.165-1.117,0.281
		c-0.364,0.117-0.686,0.277-0.957,0.476c-0.271,0.205-0.484,0.453-0.646,0.769c-0.176,0.298-0.254,0.685-0.254,1.16
		c0,0.449,0.078,0.829,0.254,1.134c0.162,0.304,0.383,0.547,0.664,0.725c0.288,0.177,0.619,0.298,0.995,0.376
		c0.376,0.066,0.763,0.099,1.171,0.099c0.984,0,1.754-0.166,2.295-0.491c0.547-0.338,0.94-0.725,1.2-1.189
		c0.265-0.458,0.422-0.923,0.481-1.393c0.061-0.476,0.083-0.852,0.083-1.127v-1.88C391.798,146.901,391.531,147.05,391.217,147.15
		 M381.294,140.057c0.519-0.773,1.176-1.404,1.977-1.873c0.804-0.471,1.711-0.808,2.71-1.006c1.007-0.2,2.014-0.304,3.025-0.304
		c0.924,0,1.852,0.065,2.792,0.199c0.938,0.126,1.813,0.381,2.586,0.762c0.779,0.376,1.417,0.896,1.913,1.57
		c0.493,0.669,0.74,1.564,0.74,2.675v9.515c0,0.824,0.045,1.614,0.145,2.371c0.09,0.752,0.254,1.321,0.487,1.703h-5.092
		c-0.094-0.288-0.172-0.575-0.228-0.873c-0.061-0.299-0.099-0.597-0.122-0.902c-0.806,0.824-1.752,1.405-2.83,1.73
		c-1.089,0.332-2.2,0.498-3.327,0.498c-0.875,0-1.693-0.105-2.444-0.316c-0.751-0.215-1.416-0.546-1.979-0.989
		c-0.564-0.454-1.007-1.017-1.327-1.703c-0.321-0.685-0.482-1.498-0.482-2.444c0-1.033,0.189-1.89,0.549-2.565
		c0.37-0.674,0.841-1.206,1.415-1.603c0.581-0.403,1.237-0.708,1.979-0.907c0.747-0.198,1.5-0.359,2.256-0.475
		c0.752-0.122,1.493-0.21,2.222-0.288c0.735-0.066,1.384-0.177,1.953-0.315c0.568-0.138,1.011-0.348,1.343-0.624
		c0.326-0.267,0.476-0.664,0.454-1.184c0-0.542-0.083-0.973-0.266-1.288c-0.177-0.315-0.404-0.569-0.709-0.741
		c-0.292-0.183-0.63-0.294-1.021-0.36c-0.394-0.055-0.813-0.083-1.256-0.083c-0.995,0-1.769,0.21-2.332,0.636
		c-0.564,0.42-0.901,1.128-0.997,2.124h-5.018C380.476,141.815,380.774,140.842,381.294,140.057 M355.497,151.28
		c0.758,0.729,1.836,1.095,3.251,1.095c1.022,0,1.89-0.254,2.62-0.763c0.735-0.509,1.184-1.04,1.349-1.603h4.424
		c-0.708,2.189-1.792,3.753-3.251,4.699c-1.471,0.939-3.239,1.415-5.313,1.415c-1.438,0-2.736-0.232-3.887-0.686
		c-1.161-0.465-2.133-1.117-2.94-1.968c-0.807-0.852-1.421-1.864-1.856-3.041c-0.438-1.183-0.653-2.477-0.653-3.892
		c0-1.371,0.221-2.643,0.668-3.826c0.448-1.172,1.09-2.195,1.907-3.063c0.83-0.857,1.814-1.532,2.953-2.029
		c1.15-0.492,2.416-0.746,3.809-0.746c1.555,0,2.914,0.304,4.069,0.906c1.155,0.597,2.107,1.404,2.848,2.421
		c0.74,1.012,1.282,2.172,1.608,3.472c0.337,1.293,0.452,2.654,0.36,4.069h-13.203C354.331,149.367,354.746,150.539,355.497,151.28
		 M361.182,141.654c-0.61-0.663-1.517-0.989-2.743-0.989c-0.807,0-1.47,0.133-2.001,0.398c-0.531,0.277-0.963,0.614-1.272,1.017
		c-0.32,0.399-0.547,0.818-0.674,1.272c-0.132,0.448-0.21,0.852-0.232,1.199h8.171C362.197,143.28,361.777,142.312,361.182,141.654
		 M347.536,137.37v3.361h-3.682v9.056c0,0.851,0.144,1.416,0.431,1.703c0.276,0.282,0.847,0.42,1.691,0.42
		c0.288,0,0.558-0.011,0.818-0.033c0.26-0.022,0.51-0.062,0.741-0.105v3.897c-0.421,0.066-0.896,0.111-1.415,0.138
		c-0.515,0.023-1.029,0.034-1.526,0.034c-0.774,0-1.509-0.055-2.205-0.161c-0.691-0.104-1.311-0.314-1.842-0.618
		c-0.53-0.31-0.95-0.741-1.254-1.311c-0.306-0.564-0.46-1.31-0.46-2.228v-10.792h-3.04v-3.361h3.04v-5.484h5.021v5.484H347.536z
		 M327.6,147.15c-0.319,0.105-0.657,0.199-1.027,0.271c-0.364,0.066-0.747,0.127-1.149,0.177c-0.398,0.044-0.802,0.1-1.2,0.177
		c-0.381,0.066-0.752,0.165-1.111,0.281c-0.371,0.117-0.685,0.277-0.962,0.476c-0.266,0.205-0.487,0.453-0.652,0.769
		c-0.166,0.298-0.243,0.685-0.243,1.16c0,0.449,0.077,0.829,0.243,1.134c0.165,0.304,0.387,0.547,0.675,0.725
		c0.275,0.177,0.608,0.298,0.984,0.376c0.388,0.066,0.769,0.099,1.172,0.099c0.989,0,1.758-0.166,2.299-0.491
		c0.542-0.338,0.94-0.725,1.206-1.189c0.254-0.458,0.42-0.923,0.476-1.393c0.061-0.476,0.089-0.852,0.089-1.127v-1.88
		C328.187,146.901,327.921,147.05,327.6,147.15 M317.672,140.057c0.52-0.773,1.184-1.404,1.984-1.873
		c0.801-0.471,1.702-0.808,2.704-1.006c1.006-0.2,2.018-0.304,3.029-0.304c0.917,0,1.851,0.065,2.797,0.199
		c0.94,0.126,1.803,0.381,2.582,0.762c0.78,0.376,1.415,0.896,1.907,1.57c0.497,0.669,0.747,1.564,0.747,2.675v9.515
		c0,0.824,0.049,1.614,0.144,2.371c0.087,0.752,0.254,1.321,0.492,1.703h-5.098c-0.094-0.288-0.166-0.575-0.232-0.873
		c-0.055-0.299-0.094-0.597-0.115-0.902c-0.803,0.824-1.753,1.405-2.831,1.73c-1.091,0.332-2.195,0.498-3.335,0.498
		c-0.867,0-1.681-0.105-2.432-0.316c-0.763-0.215-1.415-0.546-1.985-0.989c-0.569-0.454-1.012-1.017-1.332-1.703
		c-0.315-0.685-0.476-1.498-0.476-2.444c0-1.033,0.184-1.89,0.553-2.565c0.359-0.674,0.835-1.206,1.416-1.603
		c0.574-0.403,1.238-0.708,1.979-0.907c0.74-0.198,1.491-0.359,2.244-0.475c0.757-0.122,1.498-0.21,2.232-0.288
		c0.73-0.066,1.377-0.177,1.947-0.315c0.563-0.138,1.005-0.348,1.344-0.624c0.325-0.267,0.48-0.664,0.459-1.184
		c0-0.542-0.089-0.973-0.266-1.288c-0.178-0.315-0.415-0.569-0.708-0.741c-0.299-0.183-0.636-0.294-1.029-0.36
		c-0.387-0.055-0.807-0.083-1.254-0.083c-0.99,0-1.765,0.21-2.333,0.636c-0.563,0.42-0.9,1.128-0.99,2.124h-5.03
		C316.865,141.815,317.163,140.842,317.672,140.057 M314.42,137.37v3.361h-3.681v9.056c0,0.851,0.143,1.416,0.426,1.703
		c0.28,0.282,0.846,0.42,1.696,0.42c0.287,0,0.553-0.011,0.818-0.033c0.254-0.022,0.509-0.062,0.74-0.105v3.897
		c-0.426,0.066-0.896,0.111-1.415,0.138c-0.52,0.023-1.027,0.034-1.521,0.034c-0.779,0-1.514-0.055-2.211-0.161
		c-0.696-0.104-1.31-0.314-1.841-0.618c-0.53-0.31-0.951-0.741-1.261-1.311c-0.298-0.564-0.453-1.31-0.453-2.228v-10.792h-3.046
		v-3.361h3.046v-5.484h5.021v5.484H314.42z M289.42,151.114c0.222,0.388,0.516,0.708,0.875,0.956
		c0.348,0.25,0.751,0.432,1.216,0.548c0.465,0.122,0.94,0.177,1.438,0.177c0.348,0,0.72-0.038,1.117-0.121
		c0.381-0.078,0.739-0.21,1.056-0.387c0.314-0.183,0.58-0.415,0.795-0.708c0.212-0.293,0.316-0.668,0.316-1.117
		c0-0.757-0.498-1.327-1.504-1.698c-1.001-0.38-2.399-0.756-4.191-1.132c-0.729-0.166-1.447-0.36-2.134-0.582
		c-0.696-0.227-1.32-0.525-1.868-0.89c-0.536-0.365-0.974-0.818-1.306-1.376c-0.331-0.553-0.491-1.233-0.491-2.041
		c0-1.172,0.227-2.145,0.691-2.896c0.453-0.758,1.062-1.349,1.813-1.792c0.763-0.431,1.614-0.741,2.555-0.912
		c0.938-0.183,1.912-0.271,2.896-0.271c0.996,0,1.957,0.093,2.886,0.287c0.935,0.188,1.771,0.503,2.499,0.956
		c0.729,0.448,1.333,1.045,1.819,1.786c0.481,0.741,0.769,1.682,0.868,2.809h-4.777c-0.072-0.962-0.442-1.615-1.1-1.962
		c-0.657-0.337-1.438-0.509-2.332-0.509c-0.283,0-0.592,0.017-0.925,0.05c-0.331,0.033-0.63,0.11-0.9,0.232
		c-0.272,0.111-0.497,0.288-0.691,0.509c-0.188,0.227-0.282,0.531-0.282,0.907c0,0.447,0.166,0.806,0.497,1.094
		c0.328,0.282,0.76,0.514,1.289,0.686c0.536,0.177,1.139,0.343,1.826,0.487c0.684,0.143,1.381,0.292,2.088,0.453
		c0.729,0.166,1.448,0.365,2.145,0.603c0.686,0.238,1.312,0.548,1.853,0.94c0.547,0.387,0.979,0.873,1.311,1.453
		c0.325,0.576,0.492,1.289,0.492,2.134c0,1.205-0.237,2.217-0.725,3.024c-0.481,0.813-1.116,1.476-1.892,1.962
		c-0.784,0.498-1.668,0.845-2.676,1.05c-1,0.2-2.018,0.299-3.063,0.299c-1.056,0-2.089-0.105-3.105-0.316
		c-1.02-0.215-1.919-0.569-2.709-1.066c-0.786-0.486-1.438-1.15-1.946-1.963c-0.51-0.812-0.786-1.829-0.83-3.057h4.777
		C289.09,150.263,289.2,150.727,289.42,151.114 M281.515,130.399v4.671h-13.334v5.413h12.241v4.318h-12.241v6.191h13.622v4.678
		h-19.178v-25.271H281.515z"/>
</g>
</svg>
